<svg xmlns="http://www.w3.org/2000/svg" width="24" height="24" viewBox="0 0 24 24">
  <g id="Group_410" data-name="Group 410" transform="translate(-148 -670)">
    <g id="Rectangle_12" data-name="Rectangle 12" transform="translate(148 670)" fill="#fff" stroke="#707070" stroke-width="1" opacity="0">
      <rect width="24" height="24" stroke="none"/>
      <rect x="0.5" y="0.5" width="23" height="23" fill="none"/>
    </g>
    <path id="noun-gift-4117295" d="M117.007,39.993a1.468,1.468,0,0,0-1.468-1.468h-1.8a2.3,2.3,0,0,0,.329-1.175A2.35,2.35,0,0,0,111.72,35a3.524,3.524,0,0,0-2.937,1.58A3.524,3.524,0,0,0,105.846,35a2.35,2.35,0,0,0-2.35,2.35,2.3,2.3,0,0,0,.329,1.175h-1.8a1.476,1.476,0,0,0-.294,2.937v8.223a1.762,1.762,0,0,0,1.762,1.762H114.07a1.762,1.762,0,0,0,1.762-1.762V41.461a1.469,1.469,0,0,0,1.175-1.468Zm-5.286-3.818a1.175,1.175,0,1,1,0,2.35h-2.349a2.35,2.35,0,0,1,2.349-2.35Zm-7.048,1.175a1.175,1.175,0,0,1,1.175-1.175,2.35,2.35,0,0,1,2.35,2.35h-2.35a1.175,1.175,0,0,1-1.175-1.175ZM102.91,49.684V41.461H108.2v8.811h-4.7a.587.587,0,0,1-.587-.587Zm11.748,0a.587.587,0,0,1-.587.587h-4.7V41.461h5.286Zm.881-9.4h-13.51a.294.294,0,0,1,0-.587h13.51a.294.294,0,1,1,0,.587Z" transform="translate(51.594 639)" fill="#fff"/>
  </g>
</svg>
