<?xml version="1.0" encoding="UTF-8"?>
<svg width="239px" height="141px" viewBox="0 0 239 141" version="1.1" xmlns="http://www.w3.org/2000/svg" xmlns:xlink="http://www.w3.org/1999/xlink">
    <title>BF82B499-C7A3-48BA-8370-0C9BA9E76795</title>
    <defs>
        <linearGradient x1="100%" y1="50%" x2="0%" y2="50%" id="linearGradient-1">
            <stop stop-color="#F47707" offset="0%"></stop>
            <stop stop-color="#FECA01" offset="45.7632212%"></stop>
            <stop stop-color="#FFD700" offset="100%"></stop>
        </linearGradient>
        <linearGradient x1="100%" y1="50%" x2="0%" y2="50%" id="linearGradient-2">
            <stop stop-color="#FFCF2B" offset="0%"></stop>
            <stop stop-color="#FF9B38" offset="29.0264423%"></stop>
            <stop stop-color="#FFC956" offset="100%"></stop>
        </linearGradient>
        <linearGradient x1="100%" y1="80.2329127%" x2="7.97578102%" y2="12.5010549%" id="linearGradient-3">
            <stop stop-color="#FFEE57" offset="0%"></stop>
            <stop stop-color="#FFC643" offset="44.5928948%"></stop>
            <stop stop-color="#FF6300" offset="100%"></stop>
        </linearGradient>
        <linearGradient x1="50%" y1="0%" x2="50%" y2="100%" id="linearGradient-4">
            <stop stop-color="#FF962B" offset="0%"></stop>
            <stop stop-color="#FFB007" offset="100%"></stop>
        </linearGradient>
        <filter x="-3.0%" y="-3.0%" width="106.0%" height="106.0%" filterUnits="objectBoundingBox" id="filter-5">
            <feGaussianBlur stdDeviation="0.551116879" in="SourceGraphic"></feGaussianBlur>
        </filter>
    </defs>
    <g id="Page-1" stroke="none" stroke-width="1" fill="none" fill-rule="evenodd">
        <g id="Daily-Chalange-Flow_5" transform="translate(-60.000000, -217.000000)">
            <g id="Group-3" transform="translate(60.000000, 217.000000)">
                <g id="Group-2" transform="translate(0.000000, 25.000000)">
                    <g id="Group" transform="translate(52.000000, 53.000000) rotate(-10.000000) translate(-52.000000, -53.000000) translate(8.000000, 7.000000)">
                        <path d="M21.2405096,65.5310092 C21.2405096,65.5310092 38.3949045,57.2453823 56.6002548,71.2760856 C56.6002548,71.2760856 41.4805096,66.4988379 24.4326115,75.7185321 L21.2405096,65.5310092" id="Fill-65" fill="#EFB706"></path>
                        <polyline id="Fill-67" fill="#FC4D17" points="16.1286624 77.2912538 11.2017834 78.5404281 8.71312102 82.9885015 6.00866242 78.6698471 1.02573248 77.6682569 4.28229299 73.7519266 3.68815287 68.684893 8.40484076 70.5839755 13.0234395 68.4513761 12.6815287 73.5409174 16.1286624 77.2912538"></polyline>
                        <polyline id="Fill-69" fill="#F5E210" points="19.5421656 38.9607339 14.2005096 43.0346177 13.4718471 49.7278287 7.96203822 45.8874618 1.39566879 47.2604281 3.32942675 40.8148012 -6.37225587e-14 34.9684404 6.70649682 34.8249541 11.2129936 29.8366972 13.4242038 36.1979205 19.5421656 38.9607339"></polyline>
                        <path d="M47.228535,7.36844037 C47.228535,7.36844037 37.6998726,21.7480122 49.5294268,37.4020795 C49.5294268,37.4020795 45.4152866,18.8332722 53.7696815,9.77675841 L47.228535,7.36844037" id="Fill-71" fill="#FC4D17"></path>
                        <polyline id="Fill-72" fill="#32C3FA" points="53.9602548 6.23743119 52.3403822 4.90948012 50.2664968 5.17675841 51.0231847 3.21859327 50.129172 1.3195107 52.2170701 1.43767584 53.7388535 1.59926438e-14 54.2741401 2.02850153 56.1070064 3.03853211 54.3498089 4.1751682 53.9602548 6.23743119"></polyline>
                        <polyline id="Fill-78" fill="#EFB706" points="87.9103185 83.6974924 85.5057325 91.9887462 82.5770701 89.0514985 87.9103185 83.6974924"></polyline>
                        <path d="M31.3100637,31.8033028 C31.3100637,32.8892966 30.4328662,33.7699083 29.3510828,33.7699083 C28.2692994,33.7699083 27.3921019,32.8892966 27.3921019,31.8033028 C27.3921019,30.7175902 28.2692994,29.8366972 29.3510828,29.8366972 C30.4328662,29.8366972 31.3100637,30.7175902 31.3100637,31.8033028" id="Fill-85" fill="#FC4D17"></path>
                        <path d="M55.0784713,47.2379205 C55.0784713,48.3239144 54.2012739,49.204526 53.1194904,49.204526 C52.037707,49.204526 51.1605096,48.3239144 51.1605096,47.2379205 C51.1605096,46.1519266 52.037707,45.271315 53.1194904,45.271315 C54.2012739,45.271315 55.0784713,46.1519266 55.0784713,47.2379205" id="Fill-86" fill="#138DE8"></path>
                        <path d="M77.3559236,56.3844648 C77.3559236,57.4704587 76.4787261,58.3510703 75.3969427,58.3510703 C74.3151592,58.3510703 73.4379618,57.4704587 73.4379618,56.3844648 C73.4379618,55.2984709 74.3151592,54.4181407 75.3969427,54.4181407 C76.4787261,54.4181407 77.3559236,55.2984709 77.3559236,56.3844648" id="Fill-87" fill="#F5E210"></path>
                        <path d="M77.3559236,37.4020795 C77.3559236,38.4880734 76.4787261,39.3689664 75.3969427,39.3689664 C74.3151592,39.3689664 73.4379618,38.4880734 73.4379618,37.4020795 C73.4379618,36.3160856 74.3151592,35.435474 75.3969427,35.435474 C76.4787261,35.435474 77.3559236,36.3160856 77.3559236,37.4020795" id="Fill-88" fill="#D30202"></path>
                        <path d="M48.6858599,82.2148012 C48.6858599,83.3007951 47.8086624,84.1814067 46.726879,84.1814067 C45.6450955,84.1814067 44.7678981,83.3007951 44.7678981,82.2148012 C44.7678981,81.1288073 45.6450955,80.2481957 46.726879,80.2481957 C47.8086624,80.2481957 48.6858599,81.1288073 48.6858599,82.2148012" id="Fill-89" fill="#F5E210"></path>
                    </g>
                    <g id="Group-Copy-2" transform="translate(182.000000, 58.000000) scale(-1, 1) rotate(-19.000000) translate(-182.000000, -58.000000) translate(138.000000, 12.000000)">
                        <path d="M21,65.5033419 C21,65.5033419 37.9798684,56.9662918 56,71.4227497 C56,71.4227497 41.034081,66.5005389 24.1596259,76 L21,65.5033419" id="Fill-65" fill="#EFB706"></path>
                        <polyline id="Fill-67" fill="#FC4D17" points="16 77.121347 11.1066988 78.4102961 8.63499722 83 5.94897012 78.5438359 1 77.5103542 4.2343663 73.4693246 3.64427538 68.2409522 8.32881796 70.2005032 12.9159399 68 12.5763593 73.2515967 16 77.121347"></polyline>
                        <polyline id="Fill-69" fill="#F5E210" points="20 39.1739745 14.5331995 43.2701556 13.7874659 50 8.14857307 46.1386139 1.42836656 47.5190948 3.40742865 41.0381895 0 35.1598303 6.86361681 35.0155587 11.475692 30 13.7387064 36.3960396 20 39.1739745"></polyline>
                        <path d="M47.5673399,7 C47.5673399,7 38.1967125,21.363466 49.8300708,37 C49.8300708,37 45.7841646,18.4519906 54,9.40562061 L47.5673399,7" id="Fill-71" fill="#FC4D17"></path>
                        <polyline id="Fill-72" fill="#32C3FA" points="53.8452883 6 52.2194093 4.72259811 50.137834 4.9797023 50.8973277 3.09607578 50 1.26928281 52.0956399 1.38294993 53.6230661 0 54.1603376 1.95128552 56 2.92286874 54.2362869 4.01623816 53.8452883 6"></polyline>
                        <polyline id="Fill-78" fill="#EFB706" points="88 84 85.7456647 92 83 89.1659315 88 84"></polyline>
                        <path d="M31,32 C31,33.1044349 30.1044349,34 29,34 C27.8955651,34 27,33.1044349 27,32 C27,30.8958512 27.8955651,30 29,30 C30.1044349,30 31,30.8958512 31,32" id="Fill-85" fill="#FC4D17"></path>
                        <path d="M55,47 C55,48.1044349 54.1044349,49 53,49 C51.8955651,49 51,48.1044349 51,47 C51,45.8955651 51.8955651,45 53,45 C54.1044349,45 55,45.8955651 55,47" id="Fill-86" fill="#138DE8"></path>
                        <path d="M77,55.9998569 C77,57.1043708 76.1044349,58 75,58 C73.8955651,58 73,57.1043708 73,55.9998569 C73,54.895343 73.8955651,54 75,54 C76.1044349,54 77,54.895343 77,55.9998569" id="Fill-87" fill="#F5E210"></path>
                        <path d="M77,36.9998569 C77,38.1042129 76.1044349,39 75,39 C73.8955651,39 73,38.1042129 73,36.9998569 C73,35.895501 73.8955651,35 75,35 C76.1044349,35 77,35.895501 77,36.9998569" id="Fill-88" fill="#D30202"></path>
                        <path d="M49,82 C49,83.1044349 48.1044349,84 47,84 C45.8955651,84 45,83.1044349 45,82 C45,80.8955651 45.8955651,80 47,80 C48.1044349,80 49,80.8955651 49,82" id="Fill-89" fill="#F5E210"></path>
                    </g>
                </g>
                <g id="Group-27" transform="translate(70.000000, 0.000000)">
                    <path d="M51.8089272,0.5 C77.3195523,0.5 98,20.8710439 98,46 C98,71.1289561 77.3195523,91.5 51.8089272,91.5 C50.5262242,91.5 49.2557329,91.4484981 47.9994681,91.347479 C71.7277944,89.4394131 90.380854,69.8654439 90.380854,46 C90.380854,22.1345561 71.7277944,2.5605869 47.9992401,0.652520953 C49.2557329,0.5515019 50.5262242,0.5 51.8089272,0.5 Z" id="Combined-Shape" fill="url(#linearGradient-1)"></path>
                    <circle id="Oval-Copy-14" fill="url(#linearGradient-2)" cx="45.5" cy="46" r="45.5"></circle>
                    <circle id="Oval-Copy-14" stroke="url(#linearGradient-3)" stroke-width="1.83705626" cx="46" cy="45.5" r="34"></circle>
                    <circle id="Oval-Copy-14" stroke="#FF4300" stroke-width="0.598000044" fill="url(#linearGradient-4)" filter="url(#filter-5)" cx="45.5" cy="46" r="32.5"></circle>
                    <path d="M45,16.5 C29.536027,16.5 17,29.4713688 17,45.4723631 C17,52.2445368 19.2455471,58.4740213 23.0082243,63.4071038 M26.7391304,67.2103825 C31.6304578,71.7515394 38.015209,74.5 45,74.5" id="Shape" stroke="#FFFFFF" stroke-width="1.07467797" opacity="0.559570312" stroke-linecap="round"></path>
                    <g id="Group-26-Copy" transform="translate(26.000000, 21.500000)" fill="#FFFFFF" opacity="0.5">
                        <path d="M20.3452903,1.62006025 L37.7367044,35.9963787 C37.9657096,36.4490362 37.7844035,37.001633 37.331746,37.2306382 C37.2031989,37.2956718 37.0611571,37.3295573 36.9170955,37.3295573 L2.13426719,37.3295573 C1.62697811,37.3295573 1.21573905,36.9183183 1.21573905,36.4110292 C1.21573905,36.2669676 1.24962459,36.1249258 1.31465822,35.9963787 L18.7060724,1.62006025 C18.9350775,1.16740272 19.4876743,0.986096656 19.9403319,1.21510183 C20.1150255,1.30348154 20.2569106,1.44536662 20.3452903,1.62006025 Z" id="Triangle"></path>
                        <path d="M19.705104,14.4815044 L37.0965182,48.8578228 C37.3255233,49.3104803 37.1442173,49.8630771 36.6915597,50.0920823 C36.5630126,50.1571159 36.4209708,50.1910014 36.2769092,50.1910014 L1.49408091,50.1910014 C0.986791834,50.1910014 0.575552782,49.7797624 0.575552782,49.2724733 C0.575552782,49.1284117 0.609438316,48.9863699 0.674471947,48.8578228 L18.0658861,14.4815044 C18.2948913,14.0288468 18.8474881,13.8475408 19.3001456,14.0765459 C19.4748392,14.1649257 19.6167243,14.3068107 19.705104,14.4815044 Z" id="Triangle" transform="translate(18.885495, 31.526223) rotate(-180.000000) translate(-18.885495, -31.526223) "></path>
                    </g>
                    <path d="M55.0334679,30.285414 L60.4624155,19.5 C71.3479138,37.8121982 70.4430892,55.6676269 57.7479417,73.0662863 C38.7052204,99.1642753 6.56141625,87.1312602 2,84.0173442 C9.53372539,85.0004427 37.5395098,93.4813612 53.7730206,62.0747529 C55.6006166,58.5389441 56.8580612,54.1313219 57.7479417,46.9900357 C58.3411953,42.2291782 57.4363707,36.660971 55.0334679,30.285414 Z" id="Path-29" fill-opacity="0.534937719" fill="#FFFFFF" opacity="0.525948661" transform="translate(35.000000, 54.500000) scale(-1, 1) translate(-35.000000, -54.500000) "></path>
                    <path d="M5,44.5 C6.10042831,35.1568646 8.4893605,28.0086257 12.1667966,23.0552835 C17.2338132,16.2302382 24.6808244,10.3700694 30.6357848,8.21368185 M35.4732979,6.62692773 C38.5070499,5.73186399 41.8168219,4.94264611 45,4.5" id="Shape" stroke="#FFFFFF" stroke-width="2.02076189" opacity="0.5" stroke-linecap="round"></path>
                </g>
            </g>
        </g>
    </g>
</svg>