<svg xmlns="http://www.w3.org/2000/svg" width="24" height="24" viewBox="0 0 24 24">
  <g id="Group_51766" data-name="Group 51766" transform="translate(-309 -96)">
    <g id="noun-close-4662086" transform="translate(151.402 8.41)">
      <path id="Path_495" data-name="Path 495" d="M162.768,107.6a1.161,1.161,0,0,1-.821-1.982l13.677-13.677a1.161,1.161,0,1,1,1.642,1.642l-13.678,13.677a1.156,1.156,0,0,1-.821.34Z" transform="translate(-0.01 -0.01)" fill="#fff"/>
      <path id="Path_496" data-name="Path 496" d="M176.435,107.589a1.157,1.157,0,0,1-.821-.34L161.937,93.571a1.161,1.161,0,1,1,1.642-1.642l13.677,13.677a1.161,1.161,0,0,1-.822,1.982Z" transform="translate(0 0)" fill="#fff"/>
    </g>
    <rect id="Rectangle_19" data-name="Rectangle 19" width="24" height="24" transform="translate(309 96)" fill="none"/>
  </g>
</svg>
